<svg width="202" height="215" viewBox="0 0 202 215" fill="none" xmlns="http://www.w3.org/2000/svg">
<path d="M134.508 110.851C134.486 110.851 134.462 110.61 134.436 110.14C134.417 109.67 134.389 108.971 134.352 108.057C134.308 106.228 134.196 103.535 134.044 100.079C133.678 93.1748 133.005 83.2038 131.095 71.1208C130.127 65.0848 128.826 58.5268 127 51.6288C126.566 49.8978 126.033 48.1658 125.526 46.3968C125.249 45.5208 124.969 44.6378 124.688 43.7478C124.413 42.8558 124.112 41.9658 123.792 41.0768C122.564 37.4998 121.132 33.8838 119.422 30.3058C117.714 26.7308 115.738 23.1768 113.313 19.8658C110.908 16.5608 107.951 13.5008 104.336 11.4768C102.528 10.4748 100.521 9.86677 98.4736 9.70877C96.4276 9.56277 94.3286 9.87177 92.3906 10.6988C90.4486 11.5148 88.6546 12.7168 86.9976 14.1138C86.2126 14.8678 85.3826 15.5758 84.6676 16.4158C84.3036 16.8278 83.9106 17.2128 83.5686 17.6488L82.5336 18.9478C81.8396 19.8118 81.2356 20.7558 80.5836 21.6618C79.9986 22.6188 79.3706 23.5488 78.8176 24.5308C77.6956 26.4858 76.6426 28.4958 75.6946 30.5678C73.7776 34.7018 72.1616 39.0148 70.7526 43.4128C69.3396 47.8108 68.1486 52.3028 67.1376 56.8398C66.1266 61.3768 65.2486 65.9518 64.5496 70.5498C63.1446 79.7428 62.2756 88.9898 61.8936 98.1268C61.4826 107.263 61.5676 116.291 62.0156 125.063C62.4596 133.837 63.3686 142.352 64.6016 150.478C65.8926 158.593 67.5046 166.327 69.5756 173.479C70.5846 177.062 71.7226 180.493 72.9496 183.757C74.1546 187.031 75.5206 190.108 76.9546 192.991C78.3796 195.882 79.9646 198.533 81.6466 200.918C83.3336 203.293 85.1176 205.43 87.0646 207.108C88.9956 208.795 91.1286 210.157 93.4016 210.914C95.6666 211.68 98.0566 211.796 100.296 211.28C102.542 210.773 104.617 209.671 106.462 208.305C108.329 206.955 109.918 205.258 111.382 203.529C114.272 200.01 116.535 196.153 118.431 192.316C120.323 188.469 121.848 184.618 123.163 180.875C123.842 179.01 124.402 177.147 124.984 175.336C125.507 173.506 126.057 171.728 126.5 169.962C127.456 166.45 128.203 163.056 128.893 159.823C130.239 153.349 131.14 147.47 131.809 142.239C133.138 131.773 133.586 123.903 133.894 118.678C134.059 116.064 134.137 114.107 134.235 112.804C134.328 111.501 134.42 110.851 134.508 110.851C134.596 110.851 134.676 111.5 134.747 112.807C134.815 114.114 134.897 116.078 134.884 118.705C134.88 123.958 134.707 131.88 133.598 142.449C133.039 147.732 132.234 153.675 130.964 160.236C130.311 163.513 129.597 166.954 128.667 170.525C128.237 172.319 127.697 174.129 127.183 175.992C126.609 177.838 126.057 179.736 125.38 181.642C124.071 185.466 122.542 189.411 120.616 193.384C118.684 197.349 116.364 201.364 113.304 205.121C111.748 206.971 110.047 208.804 107.969 210.322C105.918 211.849 103.536 213.141 100.856 213.752C98.1876 214.376 95.2696 214.235 92.5976 213.329C89.9136 212.436 87.5016 210.874 85.3816 209.022C83.2416 207.173 81.3456 204.892 79.5686 202.388C77.7986 199.875 76.1556 197.112 74.6886 194.129C73.2116 191.151 71.8166 187.989 70.5906 184.643C69.3426 181.305 68.1906 177.807 67.1736 174.164C65.0866 166.89 63.4756 159.056 62.1956 150.848C60.9736 142.632 60.0856 134.034 59.6696 125.183C59.2496 116.333 59.2006 107.235 59.6536 98.0258C60.0776 88.8158 60.9966 79.4948 62.4616 70.2228C63.1896 65.5858 64.0996 60.9688 65.1456 56.3868C66.1926 51.8048 67.4216 47.2648 68.8806 42.8108C70.3346 38.3568 72.0026 33.9818 73.9866 29.7688C74.9676 27.6588 76.0596 25.6038 77.2256 23.5998C77.8006 22.5938 78.4556 21.6328 79.0656 20.6518C79.7476 19.7138 80.3796 18.7438 81.1096 17.8448L82.1996 16.4948C82.5586 16.0428 82.9776 15.6358 83.3626 15.2058C84.1196 14.3318 85.0086 13.5758 85.8486 12.7838C87.6306 11.2998 89.5856 10.0018 91.7476 9.11177C93.9046 8.20977 96.2936 7.86377 98.6006 8.04777C100.911 8.24077 103.151 8.95077 105.112 10.0558C105.615 10.3108 106.065 10.6458 106.541 10.9368C106.775 11.0888 107.013 11.2348 107.242 11.3928L107.894 11.9068C108.322 12.2548 108.774 12.5768 109.179 12.9458L110.374 14.0678C110.785 14.4288 111.134 14.8428 111.501 15.2398C111.862 15.6418 112.237 16.0308 112.583 16.4408L113.582 17.6958C113.918 18.1108 114.248 18.5278 114.542 18.9678C117.019 22.4078 119.003 26.0518 120.709 29.7008C122.416 33.3528 123.833 37.0258 125.04 40.6508C125.356 41.5528 125.651 42.4538 125.92 43.3568C126.195 44.2568 126.481 45.1478 126.74 46.0378C127.234 47.8258 127.753 49.5778 128.174 51.3248C129.943 58.2918 131.177 64.8978 132.074 70.9718C133.842 83.1298 134.355 93.1378 134.556 100.061C134.626 103.526 134.653 106.224 134.611 108.056C134.591 108.971 134.576 109.671 134.565 110.141C134.55 110.61 134.53 110.851 134.508 110.851Z" fill="#F9A825"/>
<path d="M124.526 83.5278C124.51 83.5428 124.327 83.3908 123.984 83.0778C123.646 82.7598 123.145 82.2888 122.487 81.6698C121.194 80.4128 119.257 78.5958 116.764 76.2718C111.74 71.6708 104.38 65.1258 94.6776 57.9738C89.8216 54.4098 84.3676 50.7148 78.3056 47.1528C76.8026 46.2398 75.2236 45.4048 73.6456 44.5138C72.0356 43.6818 70.4236 42.7948 68.7376 42.0028C65.3936 40.3618 61.8836 38.8218 58.1986 37.5238C54.5186 36.2218 50.6656 35.1258 46.6686 34.5178C45.6716 34.3548 44.6606 34.2868 43.6506 34.1688C43.1446 34.1488 42.6366 34.1298 42.1286 34.1108C41.6196 34.0838 41.1106 34.0688 40.6026 34.1028C40.0946 34.1218 39.5846 34.1408 39.0746 34.1598C38.5686 34.2118 38.0646 34.2828 37.5586 34.3428C37.3066 34.3778 37.0506 34.3978 36.8006 34.4448L36.0566 34.6128C35.5656 34.7408 35.0506 34.7988 34.5766 34.9818C30.6676 36.1058 27.2636 38.8738 25.6236 42.7108C24.7996 44.6148 24.3226 46.6878 24.0956 48.8118L24.0086 50.4188C23.9976 50.6878 23.9736 50.9548 23.9746 51.2248L23.9956 52.0358C24.0136 52.5768 24.0136 53.1188 24.0456 53.6608L24.1986 55.2908C24.6386 59.6448 25.8016 63.9738 27.2476 68.2148C28.7096 72.4588 30.5126 76.6238 32.5246 80.7038C34.5336 84.7878 36.7766 88.7788 39.1706 92.6828C41.5686 96.5848 44.0856 100.423 46.7556 104.147C52.0786 111.605 57.8306 118.724 63.8556 125.424C69.8596 132.144 76.1456 138.438 82.5176 144.295C95.2806 155.981 108.512 165.849 121.317 173.018C122.905 173.936 124.517 174.75 126.087 175.585C127.684 176.362 129.237 177.171 130.811 177.856C133.929 179.3 137.018 180.508 140.028 181.509C143.034 182.525 145.982 183.281 148.816 183.753C151.647 184.222 154.375 184.451 156.9 184.265C159.419 184.082 161.849 183.532 163.962 182.475C166.076 181.429 167.835 179.858 169.071 177.957C170.317 176.058 171.049 173.864 171.441 171.636C171.862 169.405 171.822 167.115 171.707 164.889C171.37 160.418 170.353 156.133 169.081 152.114C167.801 148.09 166.251 144.316 164.623 140.763C163.826 138.978 162.951 137.273 162.121 135.593C161.235 133.94 160.411 132.302 159.512 130.75C159.071 129.969 158.636 129.198 158.206 128.435C157.758 127.682 157.316 126.938 156.878 126.203C156.02 124.723 155.104 123.326 154.249 121.94C150.756 116.44 147.353 111.669 144.229 107.518C137.972 99.2168 132.864 93.3648 129.482 89.4708C127.797 87.5158 126.504 86.0828 125.675 85.0968C124.845 84.1108 124.463 83.5898 124.526 83.5278C124.589 83.4658 125.094 83.8678 126.046 84.7378C126.996 85.6098 128.409 86.9358 130.212 88.7938C133.831 92.4958 139.171 98.1938 145.66 106.417C148.9 110.529 152.418 115.28 156.027 120.791C156.911 122.18 157.856 123.581 158.743 125.069C159.195 125.808 159.652 126.556 160.114 127.313C160.559 128.081 161.009 128.858 161.465 129.645C162.393 131.209 163.248 132.864 164.162 134.534C165.022 136.235 165.926 137.96 166.755 139.774C168.444 143.383 170.056 147.23 171.4 151.37C172.734 155.509 173.821 159.951 174.199 164.714C174.332 167.096 174.384 169.559 173.926 172.057C173.496 174.543 172.673 177.08 171.194 179.345C169.731 181.61 167.594 183.52 165.102 184.751C162.612 185.998 159.846 186.606 157.076 186.807C154.295 187.009 151.382 186.759 148.394 186.262C145.403 185.762 142.335 184.968 139.231 183.915C136.121 182.877 132.951 181.629 129.766 180.147C128.155 179.441 126.574 178.614 124.946 177.818C123.348 176.965 121.708 176.131 120.096 175.195C107.094 167.875 93.7636 157.861 80.9286 146.023C74.5216 140.089 68.2106 133.719 62.1846 126.916C56.1376 120.133 50.3696 112.925 45.0316 105.368C42.3546 101.595 39.8306 97.7028 37.4256 93.7428C35.0256 89.7808 32.7756 85.7268 30.7596 81.5698C28.7396 77.4158 26.9306 73.1698 25.4616 68.8208C24.0096 64.4728 22.8386 60.0218 22.4066 55.4728L22.2586 53.7688C22.2286 53.1988 22.2306 52.6268 22.2156 52.0568L22.1996 51.2018C22.2006 50.9168 22.2276 50.6308 22.2406 50.3458L22.3456 48.6368C22.6026 46.3648 23.1306 44.1108 24.0606 42.0058C24.9676 39.8878 26.4326 38.0178 28.1726 36.5508C29.9266 35.0958 31.9736 34.0118 34.1136 33.4258C34.6366 33.2318 35.1876 33.1688 35.7216 33.0358L36.5276 32.8618C36.7966 32.8138 37.0696 32.7938 37.3396 32.7578C37.8806 32.6968 38.4206 32.6248 38.9596 32.5758C39.4986 32.5598 40.0376 32.5428 40.5746 32.5268C41.1126 32.4958 41.6466 32.5158 42.1776 32.5468C42.7096 32.5718 43.2406 32.5958 43.7696 32.6208C44.8176 32.7498 45.8696 32.8318 46.8986 33.0068C51.0246 33.6688 54.9496 34.8238 58.6816 36.1798C62.4186 37.5338 65.9576 39.1248 69.3216 40.8148C71.0196 41.6318 72.6376 42.5428 74.2536 43.3988C75.8366 44.3128 77.4206 45.1708 78.9246 46.1058C84.9946 49.7578 90.4356 53.5348 95.2686 57.1758C104.924 64.4828 112.196 71.1658 117.116 75.8968C119.556 78.2858 121.437 80.1658 122.67 81.4848C123.287 82.1428 123.758 82.6458 124.076 82.9838C124.389 83.3298 124.542 83.5128 124.526 83.5278Z" fill="#F9A825"/>
<path d="M122.78 134.567C122.795 134.583 122.64 134.763 122.323 135.099C122.001 135.43 121.521 135.922 120.894 136.567C119.64 137.858 117.729 139.694 115.247 142.022C110.245 146.631 102.845 153.126 93.0066 160.118C88.0836 163.602 82.5406 167.19 76.3616 170.609C73.2646 172.302 70.0226 173.981 66.5856 175.497C63.1566 177.023 59.5656 178.461 55.7796 179.634C51.9946 180.794 48.0226 181.742 43.8746 182.149C41.7976 182.305 39.6856 182.424 37.5506 182.222C36.4806 182.176 35.4176 181.977 34.3466 181.8C33.8106 181.719 33.2886 181.54 32.7576 181.413L31.9626 181.203C31.6996 181.127 31.4456 181.014 31.1856 180.921C29.0946 180.221 27.1156 179.061 25.4226 177.564C23.7266 176.072 22.2986 174.214 21.3676 172.126C21.0856 171.625 20.9156 171.08 20.7136 170.545C20.5166 170.009 20.3036 169.476 20.1866 168.918C20.0506 168.365 19.8986 167.813 19.7766 167.256L19.5156 165.568C19.2426 163.31 19.1856 161.021 19.3876 158.755C19.7376 154.215 20.7666 149.738 22.1816 145.389C23.5936 141.034 25.3666 136.785 27.3616 132.634C29.3656 128.487 31.6096 124.446 34.0046 120.497C36.4046 116.551 38.9446 112.686 41.6426 108.946C47.0136 101.447 52.8526 94.3298 58.9826 87.6618C65.0926 80.9728 71.5046 74.7428 78.0196 68.9698C91.0796 57.4648 104.662 47.8578 117.904 41.0698C121.215 39.3788 124.489 37.8348 127.745 36.5378C130.991 35.2208 134.194 34.0888 137.354 33.2358C143.642 31.4728 149.773 30.7098 155.285 31.4018C158.032 31.7418 160.733 32.5628 163.138 33.9068C165.544 35.2488 167.592 37.1748 169.048 39.4108C170.516 41.6468 171.401 44.1378 171.904 46.6028C172.363 49.0818 172.444 51.5338 172.368 53.9168C172.096 58.6758 171.087 63.1278 169.813 67.2728C168.529 71.4208 166.958 75.2738 165.298 78.8838C161.957 86.1008 158.211 92.3268 154.604 97.8088C150.982 103.287 147.437 107.996 144.168 112.063C137.621 120.198 132.202 125.789 128.537 129.42C126.709 131.242 125.278 132.539 124.315 133.39C123.352 134.239 122.842 134.629 122.78 134.567C122.718 134.504 123.108 133.991 123.954 133.026C124.812 132.074 126.1 130.645 127.822 128.734C131.252 124.907 136.439 119.16 142.752 110.95C145.904 106.845 149.332 102.118 152.835 96.6548C156.323 91.1888 159.949 85.0048 163.164 77.9068C164.761 74.3568 166.267 70.5838 167.486 66.5618C168.696 62.5438 169.636 58.2608 169.874 53.8018C169.935 51.5778 169.85 49.3158 169.432 47.0868C168.972 44.8758 168.186 42.7078 166.93 40.8038C165.682 38.8988 163.96 37.2808 161.894 36.1268C159.828 34.9748 157.453 34.2358 154.949 33.9278C149.934 33.2948 144.104 33.9798 138.029 35.6798C134.979 36.4988 131.861 37.5938 128.69 38.8738C125.51 40.1338 122.298 41.6408 119.043 43.2928C106.019 49.9298 92.5486 59.3868 79.5726 70.7338C73.0986 76.4278 66.7166 82.5788 60.6326 89.1808C54.5286 95.7628 48.7126 102.787 43.3606 110.181C40.6716 113.869 38.1406 117.678 35.7496 121.563C33.3636 125.451 31.1276 129.425 29.1316 133.496C27.1446 137.569 25.3816 141.732 23.9766 145.976C22.5666 150.214 21.5476 154.556 21.1856 158.897C20.8096 163.215 21.1826 167.619 22.9206 171.4C23.7516 173.303 25.0206 174.966 26.5326 176.319C28.0436 177.674 29.8146 178.741 31.7396 179.399C31.9776 179.486 32.2086 179.593 32.4516 179.665L33.1886 179.864C33.6826 179.985 34.1606 180.158 34.6646 180.236C35.6676 180.408 36.6626 180.606 37.6796 180.656C39.6986 180.864 41.7316 180.765 43.7346 180.632C47.7456 180.271 51.6376 179.38 55.3636 178.273C59.0916 177.154 62.6476 175.767 66.0516 174.29C69.4626 172.824 72.6916 171.191 75.7806 169.544C81.9446 166.215 87.4956 162.711 92.4376 159.306C102.315 152.473 109.799 146.119 114.902 141.642C117.435 139.38 119.401 137.608 120.714 136.381C121.38 135.778 121.889 135.317 122.232 135.007C122.579 134.7 122.765 134.551 122.78 134.567Z" fill="#F9A825"/>
<path d="M201.204 111.852C201.182 111.852 201.144 111.616 201.09 111.159C201.026 110.704 201.015 110.019 200.768 109.159C200.402 107.43 199.445 104.923 197.351 102.285C195.279 99.6448 192.183 96.8568 188.13 94.3428C184.099 91.7978 179.199 89.4098 173.592 87.3238C151.158 78.9058 117.936 74.5748 82.5736 77.0408C78.1536 77.3588 73.7006 77.7788 69.2386 78.3528C64.7736 78.9028 60.2986 79.5988 55.8376 80.4488C46.9156 82.1208 38.0286 84.4148 29.5316 87.6158C25.2906 89.2268 21.1516 91.0838 17.2646 93.3098C15.3066 94.4018 13.4636 95.6528 11.6756 96.9528L10.3896 97.9888L9.74761 98.5068L9.14361 99.0608L7.94461 100.175L6.84161 101.366C5.42861 102.988 4.17861 104.741 3.36161 106.659C2.55961 108.576 2.18261 110.624 2.32161 112.643C2.45961 114.66 3.06761 116.64 4.07361 118.43C5.09361 120.213 6.37961 121.854 7.84261 123.332C10.7956 126.273 14.3046 128.616 17.8976 130.626C21.5066 132.628 25.2506 134.277 28.9916 135.707C32.7346 137.137 36.4826 138.353 40.1896 139.377C42.0336 139.924 43.8876 140.355 45.7036 140.828C47.5356 141.243 49.3326 141.694 51.1266 142.047C65.4486 145.044 78.4246 146.178 88.9276 146.644C109.963 147.543 128.336 146.124 143.744 143.555C151.45 142.259 158.418 140.647 164.633 138.843C170.836 137.006 176.282 134.964 180.934 132.788C185.568 130.582 189.4 128.235 192.374 125.862C195.357 123.497 197.448 121.087 198.736 118.938C200.039 116.783 200.489 114.939 200.812 113.724C200.991 112.487 201.114 111.851 201.204 111.852C201.289 111.851 201.34 112.489 201.32 113.799C201.156 115.08 200.84 117.075 199.6 119.427C198.379 121.772 196.29 124.402 193.285 126.961C190.287 129.529 186.409 132.051 181.721 134.412C177.018 136.741 171.512 138.916 165.242 140.869C158.963 142.788 151.924 144.496 144.143 145.871C128.583 148.596 110.045 150.099 88.8146 149.192C78.2106 148.721 65.1126 147.561 50.6096 144.492C48.7936 144.131 46.9706 143.669 45.1146 143.243C43.2716 142.758 41.3936 142.315 39.5196 141.755C35.7546 140.704 31.9416 139.455 28.1196 137.982C24.2996 136.507 20.4646 134.805 16.7316 132.718C13.0146 130.62 9.35061 128.169 6.17361 124.985C4.59961 123.382 3.17961 121.572 2.03661 119.547C0.904608 117.515 0.180608 115.184 0.0296085 112.791C-0.126392 110.396 0.340609 107.964 1.27561 105.766C2.22561 103.565 3.62561 101.632 5.16961 99.8748L6.36961 98.5918L7.65561 97.4068C7.87161 97.2118 8.08361 97.0088 8.30361 96.8188L8.98361 96.2738L10.3476 95.1858C12.2286 93.8298 14.1596 92.5358 16.1856 91.4168C20.2156 89.1338 24.4586 87.2578 28.7886 85.6378C37.4606 82.4208 46.4626 80.1528 55.4806 78.5148C59.9896 77.6828 64.5066 77.0078 69.0106 76.4798C73.5116 75.9278 78.0006 75.5328 82.4526 75.2418C118.063 72.9938 151.42 77.6208 173.95 86.3968C179.579 88.5728 184.499 91.0568 188.543 93.7048C192.607 96.3198 195.711 99.2228 197.761 101.973C199.836 104.72 200.737 107.329 201.025 109.106C201.232 109.991 201.202 110.689 201.222 111.151C201.232 111.615 201.226 111.852 201.204 111.852Z" fill="#F9A825"/>
<path d="M111.812 123.834C119.756 115.89 119.756 103.01 111.812 95.0659C103.868 87.1219 90.9881 87.1219 83.0441 95.0659C75.1002 103.01 75.1001 115.89 83.0441 123.834C90.9881 131.778 103.868 131.778 111.812 123.834Z" fill="#F9A825"/>
<path d="M103.007 8.004C103.007 12.424 99.424 16.007 95.004 16.007C90.584 16.007 87 12.424 87 8.004C87 3.584 90.583 0 95.004 0C99.424 0.001 103.007 3.584 103.007 8.004Z" fill="#F9A825"/>
<path d="M25.004 143.008C29.4245 143.008 33.008 139.424 33.008 135.004C33.008 130.584 29.4245 127 25.004 127C20.5835 127 17 130.584 17 135.004C17 139.424 20.5835 143.008 25.004 143.008Z" fill="#F9A825"/>
<path d="M32.65 175.825C32.65 180.147 29.147 183.65 24.825 183.65C20.503 183.65 17 180.147 17 175.825C17 171.503 20.504 168 24.825 168C29.146 168 32.65 171.503 32.65 175.825Z" fill="#F9A825"/>
<path d="M177.219 168.454C181.212 166.8 183.108 162.222 181.454 158.23C179.8 154.237 175.222 152.341 171.23 153.995C167.237 155.649 165.341 160.226 166.995 164.219C168.649 168.212 173.226 170.108 177.219 168.454Z" fill="#F9A825"/>
<path d="M94.9536 103.207C94.9536 106.676 92.1406 109.489 88.6716 109.489C85.2016 109.489 82.3896 106.676 82.3896 103.207C82.3896 99.7368 85.2026 96.9248 88.6716 96.9248C92.1406 96.9248 94.9536 99.7378 94.9536 103.207Z" fill="white"/>
<path d="M174.776 158.458C174.776 159.924 173.588 161.112 172.122 161.112C170.656 161.112 169.468 159.924 169.468 158.458C169.468 156.992 170.656 155.804 172.122 155.804C173.588 155.804 174.776 156.992 174.776 158.458Z" fill="white"/>
<path d="M25.769 173.171C25.769 174.637 24.581 175.825 23.115 175.825C21.649 175.825 20.461 174.637 20.461 173.171C20.461 171.705 21.649 170.517 23.115 170.517C24.581 170.517 25.769 171.705 25.769 173.171Z" fill="white"/>
<path d="M26.162 132.349C26.162 133.815 24.974 135.003 23.508 135.003C22.042 135.003 20.854 133.815 20.854 132.349C20.854 130.883 22.042 129.695 23.508 129.695C24.974 129.696 26.162 130.884 26.162 132.349Z" fill="white"/>
<path d="M95.004 5.34999C95.004 6.81599 93.816 8.004 92.35 8.004C90.884 8.004 89.696 6.81599 89.696 5.34999C89.696 3.88399 90.884 2.696 92.35 2.696C93.816 2.696 95.004 3.88399 95.004 5.34999Z" fill="white"/>
<path d="M95.004 5.35C94.927 5.36 94.956 4.764 94.492 4.053C94.252 3.718 93.903 3.339 93.399 3.143C92.91 2.935 92.307 2.877 91.738 3.042C91.17 3.203 90.656 3.60001 90.354 4.11701C90.049 4.63101 89.956 5.253 90.075 5.799C90.327 6.917 91.31 7.531 91.961 7.603C92.63 7.713 93.225 7.533 93.655 7.269C94.079 6.987 94.346 6.64301 94.526 6.34701C94.685 6.04301 94.791 5.79301 94.837 5.61701C94.897 5.44301 94.954 5.35 95.004 5.35C95.054 5.35 95.092 5.44301 95.115 5.64701C95.153 5.85101 95.119 6.16101 94.989 6.56101C94.838 6.95001 94.553 7.424 94.029 7.82C93.503 8.196 92.717 8.46201 91.838 8.31501C91.621 8.28301 91.384 8.197 91.135 8.105C90.899 7.977 90.635 7.85101 90.412 7.63601C89.949 7.24001 89.554 6.639 89.421 5.928C89.288 5.222 89.435 4.43301 89.844 3.80201C90.247 3.16801 90.907 2.70901 91.607 2.54801C92.307 2.38201 93.02 2.497 93.572 2.779C94.14 3.049 94.505 3.51101 94.732 3.90801C94.836 4.11801 94.931 4.305 94.96 4.49C95.004 4.669 95.047 4.82101 95.036 4.95301C95.039 5.21101 95.029 5.35 95.004 5.35Z" fill="#F9A825"/>
</svg>
