<svg width="205" height="207" viewBox="0 0 205 207" fill="none" xmlns="http://www.w3.org/2000/svg">
<path d="M137.508 102.851C137.486 102.851 137.462 102.61 137.436 102.14C137.417 101.67 137.389 100.971 137.352 100.057C137.308 98.2278 137.196 95.5348 137.044 92.0788C136.678 85.1748 136.005 75.2038 134.095 63.1208C133.127 57.0848 131.826 50.5268 130 43.6288C129.566 41.8978 129.033 40.1658 128.526 38.3968C128.249 37.5208 127.969 36.6378 127.688 35.7478C127.413 34.8558 127.112 33.9658 126.792 33.0768C125.564 29.4998 124.132 25.8838 122.422 22.3058C120.714 18.7308 118.738 15.1768 116.313 11.8658C113.908 8.56077 110.951 5.50077 107.336 3.47677C105.528 2.47477 103.521 1.86677 101.474 1.70877C99.4276 1.56277 97.3286 1.87177 95.3906 2.69877C93.4486 3.51477 91.6546 4.71677 89.9976 6.11377C89.2126 6.86777 88.3826 7.57577 87.6676 8.41577C87.3036 8.82777 86.9106 9.21277 86.5686 9.64877L85.5336 10.9478C84.8396 11.8118 84.2356 12.7558 83.5836 13.6618C82.9986 14.6188 82.3706 15.5488 81.8176 16.5308C80.6956 18.4858 79.6426 20.4958 78.6946 22.5678C76.7776 26.7018 75.1616 31.0148 73.7526 35.4128C72.3396 39.8108 71.1486 44.3028 70.1376 48.8398C69.1266 53.3768 68.2486 57.9518 67.5496 62.5498C66.1446 71.7428 65.2756 80.9898 64.8936 90.1268C64.4826 99.2628 64.5676 108.291 65.0156 117.063C65.4596 125.837 66.3686 134.352 67.6016 142.478C68.8926 150.593 70.5046 158.327 72.5756 165.479C73.5846 169.062 74.7226 172.493 75.9496 175.757C77.1546 179.031 78.5206 182.108 79.9546 184.991C81.3796 187.882 82.9646 190.533 84.6466 192.918C86.3336 195.293 88.1176 197.43 90.0646 199.108C91.9956 200.795 94.1286 202.157 96.4016 202.914C98.6666 203.68 101.057 203.796 103.296 203.28C105.542 202.773 107.617 201.671 109.462 200.305C111.329 198.955 112.918 197.258 114.382 195.529C117.272 192.01 119.535 188.153 121.431 184.316C123.323 180.469 124.848 176.618 126.163 172.875C126.842 171.01 127.402 169.147 127.984 167.336C128.507 165.506 129.057 163.728 129.5 161.962C130.456 158.45 131.203 155.056 131.893 151.823C133.239 145.349 134.14 139.47 134.809 134.239C136.138 123.773 136.586 115.903 136.894 110.678C137.059 108.064 137.137 106.107 137.235 104.804C137.328 103.501 137.42 102.851 137.508 102.851C137.596 102.851 137.676 103.5 137.747 104.807C137.815 106.114 137.897 108.078 137.884 110.705C137.88 115.958 137.707 123.88 136.598 134.449C136.039 139.732 135.234 145.675 133.964 152.236C133.311 155.513 132.597 158.954 131.667 162.525C131.237 164.319 130.697 166.129 130.183 167.992C129.609 169.838 129.057 171.736 128.38 173.642C127.071 177.466 125.542 181.411 123.616 185.384C121.684 189.349 119.364 193.364 116.304 197.121C114.748 198.971 113.047 200.804 110.969 202.322C108.918 203.849 106.536 205.141 103.856 205.752C101.188 206.376 98.2696 206.235 95.5976 205.329C92.9136 204.436 90.5016 202.874 88.3816 201.022C86.2416 199.173 84.3456 196.892 82.5686 194.388C80.7986 191.875 79.1556 189.112 77.6886 186.129C76.2116 183.151 74.8166 179.989 73.5906 176.643C72.3426 173.305 71.1906 169.807 70.1736 166.164C68.0866 158.89 66.4756 151.056 65.1956 142.848C63.9736 134.632 63.0856 126.034 62.6696 117.183C62.2496 108.333 62.2006 99.2348 62.6536 90.0258C63.0776 80.8158 63.9966 71.4948 65.4616 62.2228C66.1896 57.5858 67.0996 52.9688 68.1456 48.3868C69.1926 43.8048 70.4216 39.2648 71.8806 34.8108C73.3346 30.3568 75.0026 25.9818 76.9866 21.7688C77.9676 19.6588 79.0596 17.6038 80.2256 15.5998C80.8006 14.5938 81.4556 13.6328 82.0656 12.6518C82.7476 11.7138 83.3796 10.7438 84.1096 9.84477L85.1996 8.49477C85.5586 8.04277 85.9776 7.63577 86.3626 7.20577C87.1196 6.33177 88.0086 5.57577 88.8486 4.78377C90.6306 3.29977 92.5856 2.00177 94.7476 1.11177C96.9046 0.209773 99.2936 -0.136226 101.601 0.0477744C103.911 0.240774 106.151 0.950774 108.112 2.05577C108.615 2.31077 109.065 2.64577 109.541 2.93677C109.775 3.08877 110.013 3.23477 110.242 3.39277L110.894 3.90677C111.322 4.25477 111.774 4.57677 112.179 4.94577L113.374 6.06777C113.785 6.42877 114.134 6.84277 114.501 7.23977C114.862 7.64177 115.237 8.03077 115.583 8.44077L116.582 9.69577C116.918 10.1108 117.248 10.5278 117.542 10.9678C120.019 14.4078 122.003 18.0518 123.709 21.7008C125.416 25.3528 126.833 29.0258 128.04 32.6508C128.356 33.5528 128.651 34.4538 128.92 35.3568C129.195 36.2568 129.481 37.1478 129.74 38.0378C130.234 39.8258 130.753 41.5778 131.174 43.3248C132.943 50.2918 134.177 56.8978 135.074 62.9718C136.842 75.1298 137.355 85.1378 137.556 92.0608C137.626 95.5258 137.653 98.2238 137.611 100.056C137.591 100.971 137.576 101.671 137.565 102.141C137.55 102.61 137.53 102.851 137.508 102.851Z" fill="#F9A825"/>
<path d="M127.526 75.5278C127.51 75.5428 127.327 75.3908 126.984 75.0778C126.646 74.7598 126.145 74.2888 125.487 73.6698C124.194 72.4128 122.257 70.5958 119.764 68.2718C114.74 63.6708 107.38 57.1258 97.6776 49.9738C92.8216 46.4098 87.3676 42.7148 81.3056 39.1528C79.8026 38.2398 78.2236 37.4048 76.6456 36.5138C75.0356 35.6818 73.4236 34.7948 71.7376 34.0028C68.3936 32.3618 64.8836 30.8218 61.1986 29.5238C57.5186 28.2218 53.6656 27.1258 49.6686 26.5178C48.6716 26.3548 47.6606 26.2868 46.6506 26.1688C46.1446 26.1488 45.6366 26.1298 45.1286 26.1108C44.6196 26.0838 44.1106 26.0688 43.6026 26.1028C43.0946 26.1218 42.5846 26.1408 42.0746 26.1598C41.5686 26.2118 41.0646 26.2828 40.5586 26.3428C40.3066 26.3778 40.0506 26.3978 39.8006 26.4448L39.0566 26.6128C38.5656 26.7408 38.0506 26.7988 37.5766 26.9818C33.6676 28.1058 30.2636 30.8738 28.6236 34.7108C27.7996 36.6148 27.3226 38.6878 27.0956 40.8118L27.0086 42.4188C26.9976 42.6878 26.9736 42.9548 26.9746 43.2248L26.9956 44.0358C27.0136 44.5768 27.0136 45.1188 27.0456 45.6608L27.1986 47.2908C27.6386 51.6448 28.8016 55.9738 30.2476 60.2148C31.7096 64.4588 33.5126 68.6238 35.5246 72.7038C37.5336 76.7878 39.7766 80.7788 42.1706 84.6828C44.5686 88.5848 47.0856 92.4228 49.7556 96.1468C55.0786 103.605 60.8306 110.724 66.8556 117.424C72.8596 124.144 79.1456 130.438 85.5176 136.295C98.2806 147.981 111.512 157.849 124.317 165.018C125.905 165.936 127.517 166.75 129.087 167.585C130.684 168.362 132.237 169.171 133.811 169.856C136.929 171.3 140.018 172.508 143.028 173.509C146.034 174.525 148.982 175.281 151.816 175.753C154.647 176.222 157.375 176.451 159.9 176.265C162.419 176.082 164.849 175.532 166.962 174.475C169.076 173.429 170.835 171.858 172.071 169.957C173.317 168.058 174.049 165.864 174.441 163.636C174.862 161.405 174.822 159.115 174.707 156.889C174.37 152.418 173.353 148.133 172.081 144.114C170.801 140.09 169.251 136.316 167.623 132.763C166.826 130.978 165.951 129.273 165.121 127.593C164.235 125.94 163.411 124.302 162.512 122.75C162.071 121.969 161.636 121.198 161.206 120.435C160.758 119.682 160.316 118.938 159.878 118.203C159.02 116.723 158.104 115.326 157.249 113.94C153.756 108.44 150.353 103.669 147.229 99.5178C140.972 91.2168 135.864 85.3648 132.482 81.4708C130.797 79.5158 129.504 78.0828 128.675 77.0968C127.845 76.1108 127.463 75.5898 127.526 75.5278C127.589 75.4658 128.094 75.8678 129.046 76.7378C129.996 77.6098 131.409 78.9358 133.212 80.7938C136.831 84.4958 142.171 90.1938 148.66 98.4168C151.9 102.529 155.418 107.28 159.027 112.791C159.911 114.18 160.856 115.581 161.743 117.069C162.195 117.808 162.652 118.556 163.114 119.313C163.559 120.081 164.009 120.858 164.465 121.645C165.393 123.209 166.248 124.864 167.162 126.534C168.022 128.235 168.926 129.96 169.755 131.774C171.444 135.383 173.056 139.23 174.4 143.37C175.734 147.509 176.821 151.951 177.199 156.714C177.332 159.096 177.384 161.559 176.926 164.057C176.496 166.543 175.673 169.08 174.194 171.345C172.731 173.61 170.594 175.52 168.102 176.751C165.612 177.998 162.846 178.606 160.076 178.807C157.295 179.009 154.382 178.759 151.394 178.262C148.403 177.762 145.335 176.968 142.231 175.915C139.121 174.877 135.951 173.629 132.766 172.147C131.155 171.441 129.574 170.614 127.946 169.818C126.348 168.965 124.708 168.131 123.096 167.195C110.094 159.875 96.7636 149.861 83.9286 138.023C77.5216 132.089 71.2106 125.719 65.1846 118.916C59.1376 112.133 53.3696 104.925 48.0316 97.3678C45.3546 93.5948 42.8306 89.7028 40.4256 85.7428C38.0256 81.7808 35.7756 77.7268 33.7596 73.5698C31.7396 69.4158 29.9306 65.1698 28.4616 60.8208C27.0096 56.4728 25.8386 52.0218 25.4066 47.4728L25.2586 45.7688C25.2286 45.1988 25.2306 44.6268 25.2156 44.0568L25.1996 43.2018C25.2006 42.9168 25.2276 42.6308 25.2406 42.3458L25.3456 40.6368C25.6026 38.3648 26.1306 36.1108 27.0606 34.0058C27.9676 31.8878 29.4326 30.0178 31.1726 28.5508C32.9266 27.0958 34.9736 26.0118 37.1136 25.4258C37.6366 25.2318 38.1876 25.1688 38.7216 25.0358L39.5276 24.8618C39.7966 24.8138 40.0696 24.7938 40.3396 24.7578C40.8806 24.6968 41.4206 24.6248 41.9596 24.5758C42.4986 24.5598 43.0376 24.5428 43.5746 24.5268C44.1126 24.4958 44.6466 24.5158 45.1776 24.5468C45.7096 24.5718 46.2406 24.5958 46.7696 24.6208C47.8176 24.7498 48.8696 24.8318 49.8986 25.0068C54.0246 25.6688 57.9496 26.8238 61.6816 28.1798C65.4186 29.5338 68.9576 31.1248 72.3216 32.8148C74.0196 33.6318 75.6376 34.5428 77.2536 35.3988C78.8366 36.3128 80.4206 37.1708 81.9246 38.1058C87.9946 41.7578 93.4356 45.5348 98.2686 49.1758C107.924 56.4828 115.196 63.1658 120.116 67.8968C122.556 70.2858 124.437 72.1658 125.67 73.4848C126.287 74.1428 126.758 74.6458 127.076 74.9838C127.389 75.3298 127.542 75.5128 127.526 75.5278Z" fill="#F9A825"/>
<path d="M125.78 126.567C125.795 126.583 125.64 126.763 125.323 127.099C125.001 127.43 124.521 127.922 123.894 128.567C122.64 129.858 120.729 131.694 118.247 134.022C113.245 138.631 105.845 145.126 96.0066 152.118C91.0836 155.602 85.5406 159.19 79.3616 162.609C76.2646 164.302 73.0226 165.981 69.5856 167.497C66.1566 169.023 62.5656 170.461 58.7796 171.634C54.9946 172.794 51.0226 173.742 46.8746 174.149C44.7976 174.305 42.6856 174.424 40.5506 174.222C39.4806 174.176 38.4176 173.977 37.3466 173.8C36.8106 173.719 36.2886 173.54 35.7576 173.413L34.9626 173.203C34.6996 173.127 34.4456 173.014 34.1856 172.921C32.0946 172.221 30.1156 171.061 28.4226 169.564C26.7266 168.072 25.2986 166.214 24.3676 164.126C24.0856 163.625 23.9156 163.08 23.7136 162.545C23.5166 162.009 23.3036 161.476 23.1866 160.918C23.0506 160.365 22.8986 159.813 22.7766 159.256L22.5156 157.568C22.2426 155.31 22.1856 153.021 22.3876 150.755C22.7376 146.215 23.7666 141.738 25.1816 137.389C26.5936 133.034 28.3666 128.785 30.3616 124.634C32.3656 120.487 34.6096 116.446 37.0046 112.497C39.4046 108.551 41.9446 104.686 44.6426 100.946C50.0136 93.4468 55.8526 86.3298 61.9826 79.6618C68.0926 72.9728 74.5046 66.7428 81.0196 60.9698C94.0796 49.4648 107.662 39.8578 120.904 33.0698C124.215 31.3788 127.489 29.8348 130.745 28.5378C133.991 27.2208 137.194 26.0888 140.354 25.2358C146.642 23.4728 152.773 22.7098 158.285 23.4018C161.032 23.7418 163.733 24.5628 166.138 25.9068C168.544 27.2488 170.592 29.1748 172.048 31.4108C173.516 33.6468 174.401 36.1378 174.904 38.6028C175.363 41.0818 175.444 43.5338 175.368 45.9168C175.096 50.6758 174.087 55.1278 172.813 59.2728C171.529 63.4208 169.958 67.2738 168.298 70.8838C164.957 78.1008 161.211 84.3268 157.604 89.8088C153.982 95.2868 150.437 99.9958 147.168 104.063C140.621 112.198 135.202 117.789 131.537 121.42C129.709 123.242 128.278 124.539 127.315 125.39C126.352 126.239 125.842 126.629 125.78 126.567C125.718 126.504 126.108 125.991 126.954 125.026C127.812 124.074 129.1 122.645 130.822 120.734C134.252 116.907 139.439 111.16 145.752 102.95C148.904 98.8448 152.332 94.1178 155.835 88.6548C159.323 83.1888 162.949 77.0048 166.164 69.9068C167.761 66.3568 169.267 62.5838 170.486 58.5618C171.696 54.5438 172.636 50.2608 172.874 45.8018C172.935 43.5778 172.85 41.3158 172.432 39.0868C171.972 36.8758 171.186 34.7078 169.93 32.8038C168.682 30.8988 166.96 29.2808 164.894 28.1268C162.828 26.9748 160.453 26.2358 157.949 25.9278C152.934 25.2948 147.104 25.9798 141.029 27.6798C137.979 28.4988 134.861 29.5938 131.69 30.8738C128.51 32.1338 125.298 33.6408 122.043 35.2928C109.019 41.9298 95.5486 51.3868 82.5726 62.7338C76.0986 68.4278 69.7166 74.5788 63.6326 81.1808C57.5286 87.7628 51.7126 94.7868 46.3606 102.181C43.6716 105.869 41.1406 109.678 38.7496 113.563C36.3636 117.451 34.1276 121.425 32.1316 125.496C30.1446 129.569 28.3816 133.732 26.9766 137.976C25.5666 142.214 24.5476 146.556 24.1856 150.897C23.8096 155.215 24.1826 159.619 25.9206 163.4C26.7516 165.303 28.0206 166.966 29.5326 168.319C31.0436 169.674 32.8146 170.741 34.7396 171.399C34.9776 171.486 35.2086 171.593 35.4516 171.665L36.1886 171.864C36.6826 171.985 37.1606 172.158 37.6646 172.236C38.6676 172.408 39.6626 172.606 40.6796 172.656C42.6986 172.864 44.7316 172.765 46.7346 172.632C50.7456 172.271 54.6376 171.38 58.3636 170.273C62.0916 169.154 65.6476 167.767 69.0516 166.29C72.4626 164.824 75.6916 163.191 78.7806 161.544C84.9446 158.215 90.4956 154.711 95.4376 151.306C105.315 144.473 112.799 138.119 117.902 133.642C120.435 131.38 122.401 129.608 123.714 128.381C124.38 127.778 124.889 127.317 125.232 127.007C125.579 126.7 125.765 126.551 125.78 126.567Z" fill="#F9A825"/>
<path d="M204.204 103.852C204.182 103.852 204.144 103.616 204.09 103.159C204.026 102.704 204.015 102.019 203.768 101.159C203.402 99.4298 202.445 96.9228 200.351 94.2848C198.279 91.6448 195.183 88.8568 191.13 86.3428C187.099 83.7978 182.199 81.4098 176.592 79.3238C154.158 70.9058 120.936 66.5748 85.5736 69.0408C81.1536 69.3588 76.7006 69.7788 72.2386 70.3528C67.7736 70.9028 63.2986 71.5988 58.8376 72.4488C49.9156 74.1208 41.0286 76.4148 32.5316 79.6158C28.2906 81.2268 24.1516 83.0838 20.2646 85.3098C18.3066 86.4018 16.4636 87.6528 14.6756 88.9528L13.3896 89.9888L12.7476 90.5068L12.1436 91.0608L10.9446 92.1748L9.84161 93.3658C8.42861 94.9878 7.17861 96.7408 6.36161 98.6588C5.55961 100.576 5.18261 102.624 5.32161 104.643C5.45961 106.66 6.06761 108.64 7.07361 110.43C8.09361 112.213 9.37961 113.854 10.8426 115.332C13.7956 118.273 17.3046 120.616 20.8976 122.626C24.5066 124.628 28.2506 126.277 31.9916 127.707C35.7346 129.137 39.4826 130.353 43.1896 131.377C45.0336 131.924 46.8876 132.355 48.7036 132.828C50.5356 133.243 52.3326 133.694 54.1266 134.047C68.4486 137.044 81.4246 138.178 91.9276 138.644C112.963 139.543 131.336 138.124 146.744 135.555C154.45 134.259 161.418 132.647 167.633 130.843C173.836 129.006 179.282 126.964 183.934 124.788C188.568 122.582 192.4 120.235 195.374 117.862C198.357 115.497 200.448 113.087 201.736 110.938C203.039 108.783 203.489 106.939 203.812 105.724C203.991 104.487 204.114 103.851 204.204 103.852C204.289 103.851 204.34 104.489 204.32 105.799C204.156 107.08 203.84 109.075 202.6 111.427C201.379 113.772 199.29 116.402 196.285 118.961C193.287 121.529 189.409 124.051 184.721 126.412C180.018 128.741 174.512 130.916 168.242 132.869C161.963 134.788 154.924 136.496 147.143 137.871C131.583 140.596 113.045 142.099 91.8146 141.192C81.2106 140.721 68.1126 139.561 53.6096 136.492C51.7936 136.131 49.9706 135.669 48.1146 135.243C46.2716 134.758 44.3936 134.315 42.5196 133.755C38.7546 132.704 34.9416 131.455 31.1196 129.982C27.2996 128.507 23.4646 126.805 19.7316 124.718C16.0146 122.62 12.3506 120.169 9.17361 116.985C7.59961 115.382 6.17961 113.572 5.03661 111.547C3.90461 109.515 3.18061 107.184 3.02961 104.791C2.87361 102.396 3.34061 99.9638 4.27561 97.7658C5.22561 95.5648 6.62561 93.6318 8.16961 91.8748L9.36961 90.5918L10.6556 89.4068C10.8716 89.2118 11.0836 89.0088 11.3036 88.8188L11.9836 88.2738L13.3476 87.1858C15.2286 85.8298 17.1596 84.5358 19.1856 83.4168C23.2156 81.1338 27.4586 79.2578 31.7886 77.6378C40.4606 74.4208 49.4626 72.1528 58.4806 70.5148C62.9896 69.6828 67.5066 69.0078 72.0106 68.4798C76.5116 67.9278 81.0006 67.5328 85.4526 67.2418C121.063 64.9938 154.42 69.6208 176.95 78.3968C182.579 80.5728 187.499 83.0568 191.543 85.7048C195.607 88.3198 198.711 91.2228 200.761 93.9728C202.836 96.7198 203.737 99.3288 204.025 101.106C204.232 101.991 204.202 102.689 204.222 103.151C204.232 103.615 204.226 103.852 204.204 103.852Z" fill="#F9A825"/>
<path d="M114.812 115.834C122.756 107.89 122.756 95.0099 114.812 87.0659C106.868 79.1219 93.9881 79.1219 86.0441 87.0659C78.1002 95.0099 78.1001 107.89 86.0441 115.834C93.9881 123.778 106.868 123.778 114.812 115.834Z" fill="#F9A825"/>
<path d="M134.007 32.004C134.007 36.424 130.424 40.007 126.004 40.007C121.584 40.007 118 36.424 118 32.004C118 27.584 121.583 24 126.004 24C130.424 24.001 134.007 27.584 134.007 32.004Z" fill="#F9A825"/>
<path d="M8.004 104.008C12.4245 104.008 16.008 100.424 16.008 96.004C16.008 91.5835 12.4245 88 8.004 88C3.58351 88 0 91.5835 0 96.004C0 100.424 3.58351 104.008 8.004 104.008Z" fill="#F9A825"/>
<path d="M48.65 105.825C48.65 110.147 45.147 113.65 40.825 113.65C36.503 113.65 33 110.147 33 105.825C33 101.503 36.504 98 40.825 98C45.146 98 48.65 101.503 48.65 105.825Z" fill="#F9A825"/>
<path d="M133.219 175.454C137.212 173.8 139.108 169.222 137.454 165.23C135.8 161.237 131.222 159.341 127.23 160.995C123.237 162.649 121.341 167.226 122.995 171.219C124.649 175.212 129.226 177.108 133.219 175.454Z" fill="#F9A825"/>
<path d="M97.9536 95.2068C97.9536 98.6758 95.1406 101.489 91.6716 101.489C88.2016 101.489 85.3896 98.6758 85.3896 95.2068C85.3896 91.7368 88.2026 88.9248 91.6716 88.9248C95.1406 88.9248 97.9536 91.7378 97.9536 95.2068Z" fill="white"/>
<path d="M130.776 165.458C130.776 166.924 129.588 168.112 128.122 168.112C126.656 168.112 125.468 166.924 125.468 165.458C125.468 163.992 126.656 162.804 128.122 162.804C129.588 162.804 130.776 163.992 130.776 165.458Z" fill="white"/>
<path d="M41.769 103.171C41.769 104.637 40.581 105.825 39.115 105.825C37.649 105.825 36.461 104.637 36.461 103.171C36.461 101.705 37.649 100.517 39.115 100.517C40.581 100.517 41.769 101.705 41.769 103.171Z" fill="white"/>
<path d="M9.162 93.349C9.162 94.815 7.974 96.003 6.508 96.003C5.042 96.003 3.854 94.815 3.854 93.349C3.854 91.883 5.042 90.695 6.508 90.695C7.974 90.696 9.162 91.884 9.162 93.349Z" fill="white"/>
<path d="M126.004 29.35C126.004 30.816 124.816 32.004 123.35 32.004C121.884 32.004 120.696 30.816 120.696 29.35C120.696 27.884 121.884 26.696 123.35 26.696C124.816 26.696 126.004 27.884 126.004 29.35Z" fill="white"/>
<path d="M126.004 29.35C125.927 29.36 125.956 28.764 125.492 28.053C125.252 27.718 124.903 27.339 124.399 27.143C123.91 26.935 123.307 26.877 122.738 27.042C122.17 27.203 121.656 27.6 121.354 28.117C121.049 28.631 120.956 29.253 121.075 29.799C121.327 30.917 122.31 31.531 122.961 31.603C123.63 31.713 124.225 31.533 124.655 31.269C125.079 30.987 125.346 30.643 125.526 30.347C125.685 30.043 125.791 29.793 125.837 29.617C125.897 29.443 125.954 29.35 126.004 29.35C126.054 29.35 126.092 29.443 126.115 29.647C126.153 29.851 126.119 30.161 125.989 30.561C125.838 30.95 125.553 31.424 125.029 31.82C124.503 32.196 123.717 32.462 122.838 32.315C122.621 32.283 122.384 32.197 122.135 32.105C121.899 31.977 121.635 31.851 121.412 31.636C120.949 31.24 120.554 30.639 120.421 29.928C120.288 29.222 120.435 28.433 120.844 27.802C121.247 27.168 121.907 26.709 122.607 26.548C123.307 26.382 124.02 26.497 124.572 26.779C125.14 27.049 125.505 27.511 125.732 27.908C125.836 28.118 125.931 28.305 125.96 28.49C126.004 28.669 126.047 28.821 126.036 28.953C126.039 29.211 126.029 29.35 126.004 29.35Z" fill="#F9A825"/>
</svg>
