<svg width="202" height="207" viewBox="0 0 202 207" fill="none" xmlns="http://www.w3.org/2000/svg">
<path d="M134.508 102.851C134.486 102.851 134.462 102.61 134.436 102.14C134.417 101.67 134.389 100.971 134.352 100.057C134.308 98.2278 134.196 95.5348 134.044 92.0788C133.678 85.1748 133.005 75.2038 131.095 63.1208C130.127 57.0848 128.826 50.5268 127 43.6288C126.566 41.8978 126.033 40.1658 125.526 38.3968C125.249 37.5208 124.969 36.6378 124.688 35.7478C124.413 34.8558 124.112 33.9658 123.792 33.0768C122.564 29.4998 121.132 25.8838 119.422 22.3058C117.714 18.7308 115.738 15.1768 113.313 11.8658C110.908 8.56077 107.951 5.50077 104.336 3.47677C102.528 2.47477 100.521 1.86677 98.4736 1.70877C96.4276 1.56277 94.3286 1.87177 92.3906 2.69877C90.4486 3.51477 88.6546 4.71677 86.9976 6.11377C86.2126 6.86777 85.3826 7.57577 84.6676 8.41577C84.3036 8.82777 83.9106 9.21277 83.5686 9.64877L82.5336 10.9478C81.8396 11.8118 81.2356 12.7558 80.5836 13.6618C79.9986 14.6188 79.3706 15.5488 78.8176 16.5308C77.6956 18.4858 76.6426 20.4958 75.6946 22.5678C73.7776 26.7018 72.1616 31.0148 70.7526 35.4128C69.3396 39.8108 68.1486 44.3028 67.1376 48.8398C66.1266 53.3768 65.2486 57.9518 64.5496 62.5498C63.1446 71.7428 62.2756 80.9898 61.8936 90.1268C61.4826 99.2628 61.5676 108.291 62.0156 117.063C62.4596 125.837 63.3686 134.352 64.6016 142.478C65.8926 150.593 67.5046 158.327 69.5756 165.479C70.5846 169.062 71.7226 172.493 72.9496 175.757C74.1546 179.031 75.5206 182.108 76.9546 184.991C78.3796 187.882 79.9646 190.533 81.6466 192.918C83.3336 195.293 85.1176 197.43 87.0646 199.108C88.9956 200.795 91.1286 202.157 93.4016 202.914C95.6666 203.68 98.0566 203.796 100.296 203.28C102.542 202.773 104.617 201.671 106.462 200.305C108.329 198.955 109.918 197.258 111.382 195.529C114.272 192.01 116.535 188.153 118.431 184.316C120.323 180.469 121.848 176.618 123.163 172.875C123.842 171.01 124.402 169.147 124.984 167.336C125.507 165.506 126.057 163.728 126.5 161.962C127.456 158.45 128.203 155.056 128.893 151.823C130.239 145.349 131.14 139.47 131.809 134.239C133.138 123.773 133.586 115.903 133.894 110.678C134.059 108.064 134.137 106.107 134.235 104.804C134.328 103.501 134.42 102.851 134.508 102.851C134.596 102.851 134.676 103.5 134.747 104.807C134.815 106.114 134.897 108.078 134.884 110.705C134.88 115.958 134.707 123.88 133.598 134.449C133.039 139.732 132.234 145.675 130.964 152.236C130.311 155.513 129.597 158.954 128.667 162.525C128.237 164.319 127.697 166.129 127.183 167.992C126.609 169.838 126.057 171.736 125.38 173.642C124.071 177.466 122.542 181.411 120.616 185.384C118.684 189.349 116.364 193.364 113.304 197.121C111.748 198.971 110.047 200.804 107.969 202.322C105.918 203.849 103.536 205.141 100.856 205.752C98.1876 206.376 95.2696 206.235 92.5976 205.329C89.9136 204.436 87.5016 202.874 85.3816 201.022C83.2416 199.173 81.3456 196.892 79.5686 194.388C77.7986 191.875 76.1556 189.112 74.6886 186.129C73.2116 183.151 71.8166 179.989 70.5906 176.643C69.3426 173.305 68.1906 169.807 67.1736 166.164C65.0866 158.89 63.4756 151.056 62.1956 142.848C60.9736 134.632 60.0856 126.034 59.6696 117.183C59.2496 108.333 59.2006 99.2348 59.6536 90.0258C60.0776 80.8158 60.9966 71.4948 62.4616 62.2228C63.1896 57.5858 64.0996 52.9688 65.1456 48.3868C66.1926 43.8048 67.4216 39.2648 68.8806 34.8108C70.3346 30.3568 72.0026 25.9818 73.9866 21.7688C74.9676 19.6588 76.0596 17.6038 77.2256 15.5998C77.8006 14.5938 78.4556 13.6328 79.0656 12.6518C79.7476 11.7138 80.3796 10.7438 81.1096 9.84477L82.1996 8.49477C82.5586 8.04277 82.9776 7.63577 83.3626 7.20577C84.1196 6.33177 85.0086 5.57577 85.8486 4.78377C87.6306 3.29977 89.5856 2.00177 91.7476 1.11177C93.9046 0.209773 96.2936 -0.136226 98.6006 0.0477744C100.911 0.240774 103.151 0.950774 105.112 2.05577C105.615 2.31077 106.065 2.64577 106.541 2.93677C106.775 3.08877 107.013 3.23477 107.242 3.39277L107.894 3.90677C108.322 4.25477 108.774 4.57677 109.179 4.94577L110.374 6.06777C110.785 6.42877 111.134 6.84277 111.501 7.23977C111.862 7.64177 112.237 8.03077 112.583 8.44077L113.582 9.69577C113.918 10.1108 114.248 10.5278 114.542 10.9678C117.019 14.4078 119.003 18.0518 120.709 21.7008C122.416 25.3528 123.833 29.0258 125.04 32.6508C125.356 33.5528 125.651 34.4538 125.92 35.3568C126.195 36.2568 126.481 37.1478 126.74 38.0378C127.234 39.8258 127.753 41.5778 128.174 43.3248C129.943 50.2918 131.177 56.8978 132.074 62.9718C133.842 75.1298 134.355 85.1378 134.556 92.0608C134.626 95.5258 134.653 98.2238 134.611 100.056C134.591 100.971 134.576 101.671 134.565 102.141C134.55 102.61 134.53 102.851 134.508 102.851Z" fill="#F9A825"/>
<path d="M124.526 75.5278C124.51 75.5428 124.327 75.3908 123.984 75.0778C123.646 74.7598 123.145 74.2888 122.487 73.6698C121.194 72.4128 119.257 70.5958 116.764 68.2718C111.74 63.6708 104.38 57.1258 94.6776 49.9738C89.8216 46.4098 84.3676 42.7148 78.3056 39.1528C76.8026 38.2398 75.2236 37.4048 73.6456 36.5138C72.0356 35.6818 70.4236 34.7948 68.7376 34.0028C65.3936 32.3618 61.8836 30.8218 58.1986 29.5238C54.5186 28.2218 50.6656 27.1258 46.6686 26.5178C45.6716 26.3548 44.6606 26.2868 43.6506 26.1688C43.1446 26.1488 42.6366 26.1298 42.1286 26.1108C41.6196 26.0838 41.1106 26.0688 40.6026 26.1028C40.0946 26.1218 39.5846 26.1408 39.0746 26.1598C38.5686 26.2118 38.0646 26.2828 37.5586 26.3428C37.3066 26.3778 37.0506 26.3978 36.8006 26.4448L36.0566 26.6128C35.5656 26.7408 35.0506 26.7988 34.5766 26.9818C30.6676 28.1058 27.2636 30.8738 25.6236 34.7108C24.7996 36.6148 24.3226 38.6878 24.0956 40.8118L24.0086 42.4188C23.9976 42.6878 23.9736 42.9548 23.9746 43.2248L23.9956 44.0358C24.0136 44.5768 24.0136 45.1188 24.0456 45.6608L24.1986 47.2908C24.6386 51.6448 25.8016 55.9738 27.2476 60.2148C28.7096 64.4588 30.5126 68.6238 32.5246 72.7038C34.5336 76.7878 36.7766 80.7788 39.1706 84.6828C41.5686 88.5848 44.0856 92.4228 46.7556 96.1468C52.0786 103.605 57.8306 110.724 63.8556 117.424C69.8596 124.144 76.1456 130.438 82.5176 136.295C95.2806 147.981 108.512 157.849 121.317 165.018C122.905 165.936 124.517 166.75 126.087 167.585C127.684 168.362 129.237 169.171 130.811 169.856C133.929 171.3 137.018 172.508 140.028 173.509C143.034 174.525 145.982 175.281 148.816 175.753C151.647 176.222 154.375 176.451 156.9 176.265C159.419 176.082 161.849 175.532 163.962 174.475C166.076 173.429 167.835 171.858 169.071 169.957C170.317 168.058 171.049 165.864 171.441 163.636C171.862 161.405 171.822 159.115 171.707 156.889C171.37 152.418 170.353 148.133 169.081 144.114C167.801 140.09 166.251 136.316 164.623 132.763C163.826 130.978 162.951 129.273 162.121 127.593C161.235 125.94 160.411 124.302 159.512 122.75C159.071 121.969 158.636 121.198 158.206 120.435C157.758 119.682 157.316 118.938 156.878 118.203C156.02 116.723 155.104 115.326 154.249 113.94C150.756 108.44 147.353 103.669 144.229 99.5178C137.972 91.2168 132.864 85.3648 129.482 81.4708C127.797 79.5158 126.504 78.0828 125.675 77.0968C124.845 76.1108 124.463 75.5898 124.526 75.5278C124.589 75.4658 125.094 75.8678 126.046 76.7378C126.996 77.6098 128.409 78.9358 130.212 80.7938C133.831 84.4958 139.171 90.1938 145.66 98.4168C148.9 102.529 152.418 107.28 156.027 112.791C156.911 114.18 157.856 115.581 158.743 117.069C159.195 117.808 159.652 118.556 160.114 119.313C160.559 120.081 161.009 120.858 161.465 121.645C162.393 123.209 163.248 124.864 164.162 126.534C165.022 128.235 165.926 129.96 166.755 131.774C168.444 135.383 170.056 139.23 171.4 143.37C172.734 147.509 173.821 151.951 174.199 156.714C174.332 159.096 174.384 161.559 173.926 164.057C173.496 166.543 172.673 169.08 171.194 171.345C169.731 173.61 167.594 175.52 165.102 176.751C162.612 177.998 159.846 178.606 157.076 178.807C154.295 179.009 151.382 178.759 148.394 178.262C145.403 177.762 142.335 176.968 139.231 175.915C136.121 174.877 132.951 173.629 129.766 172.147C128.155 171.441 126.574 170.614 124.946 169.818C123.348 168.965 121.708 168.131 120.096 167.195C107.094 159.875 93.7636 149.861 80.9286 138.023C74.5216 132.089 68.2106 125.719 62.1846 118.916C56.1376 112.133 50.3696 104.925 45.0316 97.3678C42.3546 93.5948 39.8306 89.7028 37.4256 85.7428C35.0256 81.7808 32.7756 77.7268 30.7596 73.5698C28.7396 69.4158 26.9306 65.1698 25.4616 60.8208C24.0096 56.4728 22.8386 52.0218 22.4066 47.4728L22.2586 45.7688C22.2286 45.1988 22.2306 44.6268 22.2156 44.0568L22.1996 43.2018C22.2006 42.9168 22.2276 42.6308 22.2406 42.3458L22.3456 40.6368C22.6026 38.3648 23.1306 36.1108 24.0606 34.0058C24.9676 31.8878 26.4326 30.0178 28.1726 28.5508C29.9266 27.0958 31.9736 26.0118 34.1136 25.4258C34.6366 25.2318 35.1876 25.1688 35.7216 25.0358L36.5276 24.8618C36.7966 24.8138 37.0696 24.7938 37.3396 24.7578C37.8806 24.6968 38.4206 24.6248 38.9596 24.5758C39.4986 24.5598 40.0376 24.5428 40.5746 24.5268C41.1126 24.4958 41.6466 24.5158 42.1776 24.5468C42.7096 24.5718 43.2406 24.5958 43.7696 24.6208C44.8176 24.7498 45.8696 24.8318 46.8986 25.0068C51.0246 25.6688 54.9496 26.8238 58.6816 28.1798C62.4186 29.5338 65.9576 31.1248 69.3216 32.8148C71.0196 33.6318 72.6376 34.5428 74.2536 35.3988C75.8366 36.3128 77.4206 37.1708 78.9246 38.1058C84.9946 41.7578 90.4356 45.5348 95.2686 49.1758C104.924 56.4828 112.196 63.1658 117.116 67.8968C119.556 70.2858 121.437 72.1658 122.67 73.4848C123.287 74.1428 123.758 74.6458 124.076 74.9838C124.389 75.3298 124.542 75.5128 124.526 75.5278Z" fill="#F9A825"/>
<path d="M122.78 126.567C122.795 126.583 122.64 126.763 122.323 127.099C122.001 127.43 121.521 127.922 120.894 128.567C119.64 129.858 117.729 131.694 115.247 134.022C110.245 138.631 102.845 145.126 93.0066 152.118C88.0836 155.602 82.5406 159.19 76.3616 162.609C73.2646 164.302 70.0226 165.981 66.5856 167.497C63.1566 169.023 59.5656 170.461 55.7796 171.634C51.9946 172.794 48.0226 173.742 43.8746 174.149C41.7976 174.305 39.6856 174.424 37.5506 174.222C36.4806 174.176 35.4176 173.977 34.3466 173.8C33.8106 173.719 33.2886 173.54 32.7576 173.413L31.9626 173.203C31.6996 173.127 31.4456 173.014 31.1856 172.921C29.0946 172.221 27.1156 171.061 25.4226 169.564C23.7266 168.072 22.2986 166.214 21.3676 164.126C21.0856 163.625 20.9156 163.08 20.7136 162.545C20.5166 162.009 20.3036 161.476 20.1866 160.918C20.0506 160.365 19.8986 159.813 19.7766 159.256L19.5156 157.568C19.2426 155.31 19.1856 153.021 19.3876 150.755C19.7376 146.215 20.7666 141.738 22.1816 137.389C23.5936 133.034 25.3666 128.785 27.3616 124.634C29.3656 120.487 31.6096 116.446 34.0046 112.497C36.4046 108.551 38.9446 104.686 41.6426 100.946C47.0136 93.4468 52.8526 86.3298 58.9826 79.6618C65.0926 72.9728 71.5046 66.7428 78.0196 60.9698C91.0796 49.4648 104.662 39.8578 117.904 33.0698C121.215 31.3788 124.489 29.8348 127.745 28.5378C130.991 27.2208 134.194 26.0888 137.354 25.2358C143.642 23.4728 149.773 22.7098 155.285 23.4018C158.032 23.7418 160.733 24.5628 163.138 25.9068C165.544 27.2488 167.592 29.1748 169.048 31.4108C170.516 33.6468 171.401 36.1378 171.904 38.6028C172.363 41.0818 172.444 43.5338 172.368 45.9168C172.096 50.6758 171.087 55.1278 169.813 59.2728C168.529 63.4208 166.958 67.2738 165.298 70.8838C161.957 78.1008 158.211 84.3268 154.604 89.8088C150.982 95.2868 147.437 99.9958 144.168 104.063C137.621 112.198 132.202 117.789 128.537 121.42C126.709 123.242 125.278 124.539 124.315 125.39C123.352 126.239 122.842 126.629 122.78 126.567C122.718 126.504 123.108 125.991 123.954 125.026C124.812 124.074 126.1 122.645 127.822 120.734C131.252 116.907 136.439 111.16 142.752 102.95C145.904 98.8448 149.332 94.1178 152.835 88.6548C156.323 83.1888 159.949 77.0048 163.164 69.9068C164.761 66.3568 166.267 62.5838 167.486 58.5618C168.696 54.5438 169.636 50.2608 169.874 45.8018C169.935 43.5778 169.85 41.3158 169.432 39.0868C168.972 36.8758 168.186 34.7078 166.93 32.8038C165.682 30.8988 163.96 29.2808 161.894 28.1268C159.828 26.9748 157.453 26.2358 154.949 25.9278C149.934 25.2948 144.104 25.9798 138.029 27.6798C134.979 28.4988 131.861 29.5938 128.69 30.8738C125.51 32.1338 122.298 33.6408 119.043 35.2928C106.019 41.9298 92.5486 51.3868 79.5726 62.7338C73.0986 68.4278 66.7166 74.5788 60.6326 81.1808C54.5286 87.7628 48.7126 94.7868 43.3606 102.181C40.6716 105.869 38.1406 109.678 35.7496 113.563C33.3636 117.451 31.1276 121.425 29.1316 125.496C27.1446 129.569 25.3816 133.732 23.9766 137.976C22.5666 142.214 21.5476 146.556 21.1856 150.897C20.8096 155.215 21.1826 159.619 22.9206 163.4C23.7516 165.303 25.0206 166.966 26.5326 168.319C28.0436 169.674 29.8146 170.741 31.7396 171.399C31.9776 171.486 32.2086 171.593 32.4516 171.665L33.1886 171.864C33.6826 171.985 34.1606 172.158 34.6646 172.236C35.6676 172.408 36.6626 172.606 37.6796 172.656C39.6986 172.864 41.7316 172.765 43.7346 172.632C47.7456 172.271 51.6376 171.38 55.3636 170.273C59.0916 169.154 62.6476 167.767 66.0516 166.29C69.4626 164.824 72.6916 163.191 75.7806 161.544C81.9446 158.215 87.4956 154.711 92.4376 151.306C102.315 144.473 109.799 138.119 114.902 133.642C117.435 131.38 119.401 129.608 120.714 128.381C121.38 127.778 121.889 127.317 122.232 127.007C122.579 126.7 122.765 126.551 122.78 126.567Z" fill="#F9A825"/>
<path d="M201.204 103.852C201.182 103.852 201.144 103.616 201.09 103.159C201.026 102.704 201.015 102.019 200.768 101.159C200.402 99.4298 199.445 96.9228 197.351 94.2848C195.279 91.6448 192.183 88.8568 188.13 86.3428C184.099 83.7978 179.199 81.4098 173.592 79.3238C151.158 70.9058 117.936 66.5748 82.5736 69.0408C78.1536 69.3588 73.7006 69.7788 69.2386 70.3528C64.7736 70.9028 60.2986 71.5988 55.8376 72.4488C46.9156 74.1208 38.0286 76.4148 29.5316 79.6158C25.2906 81.2268 21.1516 83.0838 17.2646 85.3098C15.3066 86.4018 13.4636 87.6528 11.6756 88.9528L10.3896 89.9888L9.74761 90.5068L9.14361 91.0608L7.94461 92.1748L6.84161 93.3658C5.42861 94.9878 4.17861 96.7408 3.36161 98.6588C2.55961 100.576 2.18261 102.624 2.32161 104.643C2.45961 106.66 3.06761 108.64 4.07361 110.43C5.09361 112.213 6.37961 113.854 7.84261 115.332C10.7956 118.273 14.3046 120.616 17.8976 122.626C21.5066 124.628 25.2506 126.277 28.9916 127.707C32.7346 129.137 36.4826 130.353 40.1896 131.377C42.0336 131.924 43.8876 132.355 45.7036 132.828C47.5356 133.243 49.3326 133.694 51.1266 134.047C65.4486 137.044 78.4246 138.178 88.9276 138.644C109.963 139.543 128.336 138.124 143.744 135.555C151.45 134.259 158.418 132.647 164.633 130.843C170.836 129.006 176.282 126.964 180.934 124.788C185.568 122.582 189.4 120.235 192.374 117.862C195.357 115.497 197.448 113.087 198.736 110.938C200.039 108.783 200.489 106.939 200.812 105.724C200.991 104.487 201.114 103.851 201.204 103.852C201.289 103.851 201.34 104.489 201.32 105.799C201.156 107.08 200.84 109.075 199.6 111.427C198.379 113.772 196.29 116.402 193.285 118.961C190.287 121.529 186.409 124.051 181.721 126.412C177.018 128.741 171.512 130.916 165.242 132.869C158.963 134.788 151.924 136.496 144.143 137.871C128.583 140.596 110.045 142.099 88.8146 141.192C78.2106 140.721 65.1126 139.561 50.6096 136.492C48.7936 136.131 46.9706 135.669 45.1146 135.243C43.2716 134.758 41.3936 134.315 39.5196 133.755C35.7546 132.704 31.9416 131.455 28.1196 129.982C24.2996 128.507 20.4646 126.805 16.7316 124.718C13.0146 122.62 9.35061 120.169 6.17361 116.985C4.59961 115.382 3.17961 113.572 2.03661 111.547C0.904608 109.515 0.180608 107.184 0.0296085 104.791C-0.126392 102.396 0.340609 99.9638 1.27561 97.7658C2.22561 95.5648 3.62561 93.6318 5.16961 91.8748L6.36961 90.5918L7.65561 89.4068C7.87161 89.2118 8.08361 89.0088 8.30361 88.8188L8.98361 88.2738L10.3476 87.1858C12.2286 85.8298 14.1596 84.5358 16.1856 83.4168C20.2156 81.1338 24.4586 79.2578 28.7886 77.6378C37.4606 74.4208 46.4626 72.1528 55.4806 70.5148C59.9896 69.6828 64.5066 69.0078 69.0106 68.4798C73.5116 67.9278 78.0006 67.5328 82.4526 67.2418C118.063 64.9938 151.42 69.6208 173.95 78.3968C179.579 80.5728 184.499 83.0568 188.543 85.7048C192.607 88.3198 195.711 91.2228 197.761 93.9728C199.836 96.7198 200.737 99.3288 201.025 101.106C201.232 101.991 201.202 102.689 201.222 103.151C201.232 103.615 201.226 103.852 201.204 103.852Z" fill="#F9A825"/>
<path d="M111.812 115.834C119.756 107.89 119.756 95.0099 111.812 87.0659C103.868 79.1219 90.9881 79.1219 83.0441 87.0659C75.1002 95.0099 75.1001 107.89 83.0441 115.834C90.9881 123.778 103.868 123.778 111.812 115.834Z" fill="#F9A825"/>
<path d="M70.007 70.004C70.007 74.424 66.424 78.007 62.004 78.007C57.584 78.007 54 74.424 54 70.004C54 65.584 57.583 62 62.004 62C66.424 62.001 70.007 65.584 70.007 70.004Z" fill="#F9A825"/>
<path d="M64.004 146.008C68.4245 146.008 72.008 142.424 72.008 138.004C72.008 133.584 68.4245 130 64.004 130C59.5835 130 56 133.584 56 138.004C56 142.424 59.5835 146.008 64.004 146.008Z" fill="#F9A825"/>
<path d="M100.65 149.825C100.65 154.147 97.147 157.65 92.825 157.65C88.503 157.65 85 154.147 85 149.825C85 145.503 88.504 142 92.825 142C97.146 142 100.65 145.503 100.65 149.825Z" fill="#F9A825"/>
<path d="M136.219 92.4537C140.212 90.7998 142.108 86.2223 140.454 82.2295C138.8 78.2368 134.222 76.3407 130.23 77.9946C126.237 79.6485 124.341 84.226 125.995 88.2188C127.649 92.2115 132.226 94.1076 136.219 92.4537Z" fill="#F9A825"/>
<path d="M94.9536 95.2068C94.9536 98.6758 92.1406 101.489 88.6716 101.489C85.2016 101.489 82.3896 98.6758 82.3896 95.2068C82.3896 91.7368 85.2026 88.9248 88.6716 88.9248C92.1406 88.9248 94.9536 91.7378 94.9536 95.2068Z" fill="white"/>
<path d="M133.776 82.4579C133.776 83.9239 132.588 85.1119 131.122 85.1119C129.656 85.1119 128.468 83.9239 128.468 82.4579C128.468 80.9919 129.656 79.8039 131.122 79.8039C132.588 79.8039 133.776 80.9919 133.776 82.4579Z" fill="white"/>
<path d="M93.769 147.171C93.769 148.637 92.581 149.825 91.115 149.825C89.649 149.825 88.461 148.637 88.461 147.171C88.461 145.705 89.649 144.517 91.115 144.517C92.581 144.517 93.769 145.705 93.769 147.171Z" fill="white"/>
<path d="M65.162 135.349C65.162 136.815 63.974 138.003 62.508 138.003C61.042 138.003 59.854 136.815 59.854 135.349C59.854 133.883 61.042 132.695 62.508 132.695C63.974 132.696 65.162 133.884 65.162 135.349Z" fill="white"/>
<path d="M62.004 67.35C62.004 68.816 60.816 70.004 59.35 70.004C57.884 70.004 56.696 68.816 56.696 67.35C56.696 65.884 57.884 64.696 59.35 64.696C60.816 64.696 62.004 65.884 62.004 67.35Z" fill="white"/>
<path d="M62.004 67.35C61.927 67.36 61.956 66.764 61.492 66.053C61.252 65.718 60.903 65.339 60.399 65.143C59.91 64.935 59.307 64.877 58.738 65.042C58.17 65.203 57.656 65.6 57.354 66.117C57.049 66.631 56.956 67.253 57.075 67.799C57.327 68.917 58.31 69.531 58.961 69.603C59.63 69.713 60.225 69.533 60.655 69.269C61.079 68.987 61.346 68.643 61.526 68.347C61.685 68.043 61.791 67.793 61.837 67.617C61.897 67.443 61.954 67.35 62.004 67.35C62.054 67.35 62.092 67.443 62.115 67.647C62.153 67.851 62.119 68.161 61.989 68.561C61.838 68.95 61.553 69.424 61.029 69.82C60.503 70.196 59.717 70.462 58.838 70.315C58.621 70.283 58.384 70.197 58.135 70.105C57.899 69.977 57.635 69.851 57.412 69.636C56.949 69.24 56.554 68.639 56.421 67.928C56.288 67.222 56.435 66.433 56.844 65.802C57.247 65.168 57.907 64.709 58.607 64.548C59.307 64.382 60.02 64.497 60.572 64.779C61.14 65.049 61.505 65.511 61.732 65.908C61.836 66.118 61.931 66.305 61.96 66.49C62.004 66.669 62.047 66.821 62.036 66.953C62.039 67.211 62.029 67.35 62.004 67.35Z" fill="#F9A825"/>
</svg>
