<svg id="Layer_1" data-name="Layer 1" xmlns="http://www.w3.org/2000/svg" viewBox="0 0 96 96"><defs><style>.cls-1{fill:#f6b756;}.cls-2{fill:#fac77d;}.cls-3{fill:#ffd69e;}.cls-4{fill:#f3f4f5;}.cls-5{fill:#39426a;}</style></defs><title>dollar, coin, money, finance, payment</title><circle class="cls-1" cx="48" cy="48" r="46.24"/><circle class="cls-2" cx="48" cy="48" r="36.4"/><path class="cls-3" d="M72.13,52a4,4,0,0,1-4-4A20.12,20.12,0,0,0,48,27.9a4,4,0,0,1,0-8A28.18,28.18,0,0,1,76.15,48,4,4,0,0,1,72.13,52Z"/><path class="cls-3" d="M48,76.15A28.18,28.18,0,0,1,19.85,48a4,4,0,0,1,8,0A20.12,20.12,0,0,0,48,68.1a4,4,0,0,1,0,8.05Z"/><path class="cls-4" d="M51.34,46H44.66c-3,0-5.51-2.2-5.51-4.92s2.47-4.92,5.51-4.92h14V32.26H50v-5.9H46v5.9H44.66c-5.21,0-9.45,4-9.45,8.85S39.45,50,44.66,50h6.68c3,0,5.51,2.2,5.51,4.92s-2.47,4.92-5.51,4.92H37.29v3.93H46v5.9H50v-5.9h1.39c5.21,0,9.45-4,9.45-8.85S56.55,46,51.34,46Z"/><path class="cls-5" d="M48,85.39A37.39,37.39,0,1,1,85.39,48,37.44,37.44,0,0,1,48,85.39Zm0-72.81A35.42,35.42,0,1,0,83.42,48,35.46,35.46,0,0,0,48,12.58Z"/><path class="cls-5" d="M48,95.22A47.22,47.22,0,1,1,95.22,48,47.27,47.27,0,0,1,48,95.22ZM48,2.74A45.26,45.26,0,1,0,93.26,48,45.32,45.32,0,0,0,48,2.74Z"/><path class="cls-5" d="M50,70.63H46a1,1,0,0,1-1-1V64.73H37.29a1,1,0,0,1-1-1V59.81a1,1,0,0,1,1-1H51.34c2.5,0,4.53-1.76,4.53-3.93S53.84,51,51.34,51H44.66c-5.75,0-10.43-4.41-10.43-9.84s4.68-9.84,10.43-9.84H45V26.36a1,1,0,0,1,1-1H50a1,1,0,0,1,1,1v4.91h7.74a1,1,0,0,1,1,1v3.93a1,1,0,0,1-1,1h-14c-2.5,0-4.53,1.76-4.53,3.93s2,3.94,4.53,3.94h6.68c5.75,0,10.43,4.41,10.43,9.84s-4.68,9.84-10.43,9.84h-.41v4.91A1,1,0,0,1,50,70.63Zm-3-2h2V63.74a1,1,0,0,1,1-1h1.39c4.67,0,8.47-3.53,8.47-7.87S56,47,51.34,47H44.66c-3.58,0-6.5-2.65-6.5-5.91s2.92-5.9,6.5-5.9h13v-2H50a1,1,0,0,1-1-1V27.34H47v4.92a1,1,0,0,1-1,1H44.66c-4.67,0-8.47,3.53-8.47,7.87S40,49,44.66,49h6.68c3.58,0,6.5,2.65,6.5,5.91s-2.92,5.9-6.5,5.9H38.28v2H46a1,1,0,0,1,1,1Z"/></svg>